<svg preserveAspectRatio="none" width="100%" height="100%" overflow="visible" style="display: block;" viewBox="0 0 24 24" fill="none" xmlns="http://www.w3.org/2000/svg">
<g id="Icon">
<path id="Vector" d="M12 6.528V3C12 2.73478 12.1054 2.48043 12.2929 2.29289C12.4804 2.10536 12.7348 2 13 2" stroke="var(--stroke-0, white)" stroke-width="2" stroke-linecap="round" stroke-linejoin="round"/>
<path id="Vector_2" d="M18.237 21C20.6762 18.2415 22.0156 14.6822 22 11C22 9.84176 21.6647 8.70828 21.0347 7.73638C20.4046 6.76449 19.5068 5.99572 18.4494 5.52288C17.3921 5.05004 16.2205 4.89334 15.0761 5.0717C13.9316 5.25005 12.8633 5.75584 12 6.528C11.1367 5.75584 10.0684 5.25005 8.92392 5.0717C7.7795 4.89334 6.6079 5.05004 5.55057 5.52288C4.49324 5.99572 3.59537 6.76449 2.96533 7.73638C2.33529 8.70828 2.00003 9.84176 2 11C1.99369 14.6805 3.33186 18.2367 5.763 21C6.21071 21.5009 6.81357 21.837 7.47501 21.9545C8.13645 22.072 8.81819 21.964 9.411 21.648C10.2078 21.2229 11.0969 21.0005 12 21.0005C12.9031 21.0005 13.7922 21.2229 14.589 21.648C15.1818 21.964 15.8635 22.072 16.525 21.9545C17.1864 21.837 17.7893 21.5009 18.237 21Z" stroke="var(--stroke-0, white)" stroke-width="2" stroke-linecap="round" stroke-linejoin="round"/>
</g>
</svg>
