<svg preserveAspectRatio="none" width="100%" height="100%" overflow="visible" style="display: block;" viewBox="0 0 20 20" fill="none" xmlns="http://www.w3.org/2000/svg">
<g id="fi_17155649">
<path id="Vector" d="M15.6706 4.70685C15.6772 4.70716 15.6834 4.70747 15.69 4.70747C15.8537 4.70747 15.9915 4.57966 16.0015 4.41403L16.1009 2.77091C16.1009 2.76872 16.1 2.76685 16.1 2.76466C16.1015 2.72622 16.0953 2.68841 16.0828 2.65153C16.0815 2.6481 16.0822 2.64403 16.0809 2.6406C16.0662 2.60216 16.044 2.56591 16.0137 2.53466C16.0131 2.53403 16.0122 2.53372 16.0115 2.5331C16.0109 2.53247 16.0109 2.53153 16.0103 2.53091C16.0028 2.52341 15.9922 2.5206 15.9837 2.51372C15.9587 2.49341 15.9334 2.47403 15.9047 2.46278C15.8922 2.45778 15.8787 2.45778 15.8659 2.45466C15.8381 2.44747 15.8109 2.44122 15.7822 2.44185C15.7781 2.44185 15.7743 2.43966 15.7703 2.43997L14.1272 2.53935C13.955 2.54966 13.8237 2.69778 13.834 2.87028C13.8447 3.04278 13.995 3.17528 14.165 3.16341L14.965 3.11497L11.7809 6.19716L9.46559 4.26247C9.34871 4.16528 9.17965 4.16528 9.0634 4.26372L5.69871 7.10778C5.56684 7.21903 5.55028 7.41622 5.66184 7.5481C5.72371 7.62122 5.81184 7.65872 5.9009 7.65872C5.97215 7.65872 6.04371 7.63435 6.10246 7.58497L9.26653 4.91028L11.5959 6.85685C11.7187 6.95903 11.899 6.9531 12.0137 6.84153L15.4287 3.5356L15.3778 4.37591C15.3675 4.5481 15.4984 4.69622 15.6706 4.70685Z" fill="var(--fill-0, black)"/>
<path id="Vector_2" d="M3.38719 19.3712C3.39344 19.3716 3.39875 19.375 3.405 19.375H16.5953C16.6019 19.375 16.6072 19.3716 16.6137 19.3712C17.4419 19.3619 18.1128 18.6869 18.1128 17.8569V0.9375C18.1128 0.765 17.9731 0.625 17.8003 0.625H4.61125C4.43844 0.625 4.29875 0.765 4.29875 0.9375V15.1978H2.19938C2.02656 15.1978 1.88688 15.3378 1.88688 15.5103V17.8569C1.88688 18.6875 2.55875 19.3625 3.38719 19.3712ZM4.92375 1.25H17.4881V17.8569C17.4881 18.3484 17.0884 18.7481 16.5966 18.7481C16.3594 18.7481 16.1344 18.6553 15.9666 18.4909C15.7978 18.3191 15.705 18.0937 15.705 17.8569V15.5103C15.705 15.3378 15.5653 15.1978 15.3925 15.1978H4.92375V1.25ZM2.51188 15.8228H15.0803V17.8569C15.0803 18.1806 15.1862 18.4881 15.3769 18.75H3.41312C3.40969 18.75 3.40687 18.7481 3.40344 18.7481C2.91187 18.7481 2.51188 18.3484 2.51188 17.8569V15.8228Z" fill="var(--fill-0, black)"/>
<path id="Vector_3" d="M7.07656 8.54844H6.05094C5.87813 8.54844 5.73844 8.68844 5.73844 8.86094V9.88656C5.73844 10.0591 5.87813 10.1991 6.05094 10.1991H7.07656C7.24938 10.1991 7.38906 10.0591 7.38906 9.88656V8.86094C7.38906 8.68844 7.24938 8.54844 7.07656 8.54844ZM6.76406 9.57406H6.36344V9.17344H6.76406V9.57406Z" fill="var(--fill-0, black)"/>
<path id="Vector_4" d="M13.9194 9.07438H8.07625C7.90344 9.07438 7.76375 9.21438 7.76375 9.38688C7.76375 9.55938 7.90344 9.69938 8.07625 9.69938H13.9194C14.0922 9.69938 14.2319 9.55938 14.2319 9.38688C14.2319 9.21438 14.0922 9.07438 13.9194 9.07438Z" fill="var(--fill-0, black)"/>
<path id="Vector_5" d="M7.07656 10.6947H6.05094C5.87813 10.6947 5.73844 10.8347 5.73844 11.0072V12.0328C5.73844 12.2053 5.87813 12.3453 6.05094 12.3453H7.07656C7.24938 12.3453 7.38906 12.2053 7.38906 12.0328V11.0072C7.38906 10.8347 7.24938 10.6947 7.07656 10.6947ZM6.76406 11.7203H6.36344V11.3197H6.76406V11.7203Z" fill="var(--fill-0, black)"/>
<path id="Vector_6" d="M13.9194 11.2203H8.07625C7.90344 11.2203 7.76375 11.3603 7.76375 11.5328C7.76375 11.7053 7.90344 11.8453 8.07625 11.8453H13.9194C14.0922 11.8453 14.2319 11.7053 14.2319 11.5328C14.2319 11.3603 14.0922 11.2203 13.9194 11.2203Z" fill="var(--fill-0, black)"/>
<path id="Vector_7" d="M7.07656 12.8406H6.05094C5.87813 12.8406 5.73844 12.9806 5.73844 13.1531V14.1788C5.73844 14.3513 5.87813 14.4913 6.05094 14.4913H7.07656C7.24938 14.4913 7.38906 14.3513 7.38906 14.1788V13.1531C7.38906 12.9806 7.24938 12.8406 7.07656 12.8406ZM6.76406 13.8663H6.36344V13.4656H6.76406V13.8663Z" fill="var(--fill-0, black)"/>
<path id="Vector_8" d="M13.9194 13.3663H8.07625C7.90344 13.3663 7.76375 13.5063 7.76375 13.6788C7.76375 13.8513 7.90344 13.9913 8.07625 13.9913H13.9194C14.0922 13.9913 14.2319 13.8513 14.2319 13.6788C14.2319 13.5063 14.0922 13.3663 13.9194 13.3663Z" fill="var(--fill-0, black)"/>
</g>
</svg>
