<svg preserveAspectRatio="none" width="100%" height="100%" overflow="visible" style="display: block;" viewBox="0 0 16.0819 17.9571" fill="none" xmlns="http://www.w3.org/2000/svg">
<path id="Icon" d="M10.8538 13.6666H15.5418L14.2245 12.3493C13.8673 11.9921 13.6666 11.5075 13.6666 11.0023V8.04092C13.6666 5.59148 12.1011 3.50767 9.91615 2.73539V2.41528C9.91615 1.37962 9.07659 0.540062 8.04094 0.540062C7.00528 0.540062 6.16572 1.37962 6.16572 2.41528V2.73539C3.98074 3.50767 2.41529 5.59148 2.41529 8.04092V11.0023C2.41529 11.5075 2.2146 11.9921 1.85735 12.3493L0.540078 13.6666H5.22811M10.8538 13.6666V14.6042C10.8538 16.1577 9.59442 17.417 8.04094 17.417C6.48746 17.417 5.22811 16.1577 5.22811 14.6042V13.6666M10.8538 13.6666H5.22811" stroke="var(--stroke-0, #3F3F46)" stroke-width="1.08012" stroke-linecap="round" stroke-linejoin="round"/>
</svg>
