<svg preserveAspectRatio="none" width="100%" height="100%" overflow="visible" style="display: block;" viewBox="0 0 20 19.9993" fill="none" xmlns="http://www.w3.org/2000/svg">
<g id="Group">
<path id="Vector" d="M18.9258 0H17.683C17.3164 0 17.2997 0.585938 17.683 0.585938H18.9258C19.195 0.585938 19.4141 0.804961 19.4141 1.07422V7.49402C19.4141 7.76328 19.195 7.9823 18.9258 7.9823H18.0368C17.8749 7.9823 17.7438 8.11348 17.7438 8.27527V9.06453L16.7474 8.06813C16.6924 8.01316 16.6179 7.9823 16.5402 7.9823H10.8378V5.81363C10.8383 5.21578 10.3457 4.7307 9.74813 4.73941V1.07422C9.74813 0.804961 9.96715 0.585938 10.2364 0.585938H16.0156C16.3823 0.585938 16.3989 0 16.0156 0H10.2364C9.6441 0 9.16219 0.481875 9.16219 1.07422V4.73941H1.07422C0.481914 4.73941 0 5.22129 0 5.81363V12.2334C0 12.8258 0.481914 13.3077 1.07422 13.3077H1.67027V14.5113C1.67027 14.7637 1.98453 14.9042 2.17043 14.7184L3.58113 13.3077H5.88492V17.4292C5.88492 18.0216 6.36684 18.5034 6.95914 18.5034H13.1416L14.5523 19.9142C14.7382 20.1 15.0525 19.9595 15.0525 19.707V18.5034H15.6485C16.2408 18.5034 16.7227 18.0216 16.7227 17.4292V11.0095C16.7227 10.4171 16.2408 9.93523 15.6485 9.93523H10.8378V8.56828H16.4189L17.8296 9.97902C18.0155 10.1648 18.3297 10.0243 18.3297 9.77188V8.56828H18.9258C19.5181 8.56828 20 8.08641 20 7.49406V1.07422C20 0.481914 19.5181 0 18.9258 0ZM5.88488 11.0095V11.1807C5.68414 11.2871 5.51898 11.363 5.41855 11.4068C5.22687 11.3232 4.79945 11.1227 4.33125 10.8119C4.0259 10.609 3.68785 11.088 4.00723 11.3C4.69043 11.7536 5.28734 11.9878 5.31242 11.9976C5.38316 12.0241 5.45395 12.0241 5.52473 11.9976C5.53355 11.9941 5.67074 11.9404 5.88488 11.8373V12.7218H3.45977C3.38207 12.7218 3.30758 12.7526 3.25258 12.8076L2.25621 13.804V13.0147C2.25621 12.8529 2.12508 12.7218 1.96324 12.7218H1.07422C0.804961 12.7218 0.585938 12.5027 0.585938 12.2335V5.81363C0.585938 5.54438 0.804961 5.32535 1.07422 5.32535H9.76359C10.0329 5.32535 10.2519 5.54438 10.2519 5.81363V9.93523H8.28625C8.66191 9.39527 8.85203 8.82352 8.85207 8.22898C8.85215 7.13742 7.97598 6.2493 6.89887 6.24922C6.31988 6.24918 5.78484 6.50402 5.41898 6.9359C5.0532 6.50398 4.51816 6.24906 3.93914 6.24898C2.86219 6.24891 1.98578 7.13691 1.9857 8.22844C1.98562 8.93016 2.25145 9.60285 2.77574 10.2278C3.01133 10.5087 3.47102 10.1449 3.22465 9.85121C2.79129 9.33465 2.57156 8.78871 2.57164 8.22848C2.57172 7.46 3.18516 6.83484 3.9391 6.83488C4.45508 6.83492 4.92176 7.12637 5.15707 7.59551C5.20754 7.69613 5.31211 7.74754 5.41895 7.75715C5.52977 7.75715 5.63113 7.69461 5.68078 7.59555C6.34812 6.29719 8.25176 6.77453 8.26613 8.22891C8.26605 8.82012 8.02195 9.39359 7.54043 9.9352H6.9591C6.3668 9.93523 5.88488 10.4171 5.88488 11.0095ZM15.6485 10.5212C15.9178 10.5212 16.1368 10.7402 16.1368 11.0095V17.4293C16.1368 17.6985 15.9178 17.9175 15.6485 17.9175H14.7595C14.5977 17.9175 14.4665 18.0487 14.4665 18.2105V18.9998L13.4701 18.0034C13.4152 17.9484 13.3407 17.9175 13.2629 17.9175H6.9591C6.68984 17.9175 6.47082 17.6985 6.47082 17.4293V11.0095C6.47082 10.7402 6.68984 10.5212 6.9591 10.5212H15.6485Z" fill="var(--fill-0, black)"/>
<path id="Vector_2" d="M14.6397 1.31665C14.5314 1.31665 14.432 1.37638 14.3811 1.47192L13.6137 2.91298C13.552 3.02942 13.4861 3.12927 13.3577 3.18489C13.2311 2.9806 13.005 2.84419 12.7475 2.84419H12.2546C11.859 2.84419 11.5371 3.16606 11.5371 3.56173V6.51833C11.5371 6.91395 11.859 7.23587 12.2546 7.23587H12.7475C13.0432 7.23587 13.2975 7.05606 13.4073 6.80013C13.5386 6.84626 13.6862 6.87481 13.8677 6.87481H16.352C16.7612 6.87481 17.1199 6.59852 17.2244 6.20294L17.7572 4.18661C17.8936 3.68208 17.466 3.17337 16.9574 3.17337H15.8245C15.7557 3.17337 15.6998 3.11739 15.6998 3.04864V2.37677C15.6998 1.79224 15.2242 1.31665 14.6397 1.31665ZM12.8791 6.51833C12.8791 6.59087 12.8201 6.64993 12.7475 6.64993H12.2546C12.1821 6.64993 12.1231 6.59091 12.1231 6.51833V3.56173C12.1231 3.48919 12.1821 3.43013 12.2546 3.43013H12.7475C12.8201 3.43013 12.8791 3.48915 12.8791 3.56173V6.51833ZM15.8245 3.75931H16.9574C17.1059 3.75931 17.2191 3.89782 17.189 4.04321L16.6579 6.05329C16.6213 6.192 16.4955 6.28888 16.352 6.28888H13.8677C13.7102 6.28888 13.6055 6.2604 13.465 6.18563V3.76829C13.7614 3.68278 14.0096 3.46962 14.1368 3.17739L14.8006 1.93075C14.983 1.99681 15.1138 2.17181 15.1138 2.37681V3.04868C15.1139 3.44048 15.4327 3.75931 15.8245 3.75931Z" fill="var(--fill-0, black)"/>
<path id="Vector_3" d="M8.7768 15.3387C9.34941 15.3387 9.81527 14.8728 9.81527 14.3002C9.75824 12.9225 7.79512 12.9229 7.73828 14.3002C7.73828 14.8728 8.20418 15.3387 8.7768 15.3387ZM8.7768 13.8476C9.02633 13.8476 9.22934 14.0506 9.22934 14.3002C9.20445 14.9006 8.34898 14.9004 8.32422 14.3002C8.32422 14.0507 8.52723 13.8476 8.7768 13.8476Z" fill="var(--fill-0, black)"/>
<path id="Vector_4" d="M11.3041 15.3387C11.8767 15.3387 12.3426 14.8728 12.3426 14.3002C12.2855 12.9225 10.3225 12.9229 10.2656 14.3002C10.2656 14.8728 10.7315 15.3387 11.3041 15.3387ZM11.3041 13.8476C11.5537 13.8476 11.7567 14.0506 11.7567 14.3002C11.7318 14.9005 10.8763 14.9004 10.8516 14.3002C10.8516 14.0507 11.0546 13.8476 11.3041 13.8476Z" fill="var(--fill-0, black)"/>
<path id="Vector_5" d="M13.8295 15.3387C14.4021 15.3387 14.868 14.8728 14.868 14.3002C14.811 12.9225 12.8479 12.9229 12.791 14.3002C12.791 14.8728 13.2569 15.3387 13.8295 15.3387ZM13.8295 13.8476C14.0791 13.8476 14.2821 14.0506 14.2821 14.3002C14.2572 14.9006 13.4017 14.9004 13.377 14.3002C13.377 14.0507 13.58 13.8476 13.8295 13.8476Z" fill="var(--fill-0, black)"/>
</g>
</svg>
