<svg preserveAspectRatio="none" width="100%" height="100%" overflow="visible" style="display: block;" viewBox="0 0 19.3909 19.9999" fill="none" xmlns="http://www.w3.org/2000/svg">
<g id="Group">
<path id="Vector" d="M19.1746 14.315C18.8015 13.7668 18.1687 13.6329 17.4812 13.9564L17.1168 14.1168C17.6913 12.8922 17.7626 11.5271 17.4766 10.2377C17.1481 8.75668 16.3547 7.322 15.1185 5.97344C15.0092 5.85418 14.8239 5.84614 14.7046 5.95547C14.5854 6.06477 14.5773 6.25004 14.6866 6.36934C15.8525 7.64106 16.5988 8.98524 16.9047 10.3645C17.2269 11.8173 17.0395 13.3156 16.2171 14.5129L12.571 16.1184L12.574 15.7066C12.5741 15.6962 12.5736 15.6858 12.5725 15.6754C12.4884 14.8291 11.8414 14.1547 10.9993 14.0356C10.9968 14.0352 10.9943 14.0349 10.9917 14.0346L7.75105 13.6615C6.50492 13.4841 6.18398 12.7373 4.49633 12.3115C4.37973 11.3221 4.53516 10.2686 4.96117 9.21246C5.60277 7.62192 6.85797 6.0766 8.59805 4.73157C9.2466 5.19141 12.1401 5.24864 12.7876 4.65543C13.1193 4.90735 13.4359 5.16696 13.7308 5.42973C13.7866 5.47949 13.8562 5.50395 13.9256 5.50395C14.0062 5.50395 14.0865 5.47086 14.1444 5.4059C14.252 5.28512 14.2413 5.09996 14.1205 4.99235C13.7972 4.70434 13.4495 4.42016 13.0848 4.14551C13.1702 3.78309 13.0506 3.35891 12.735 3.10641C13.6521 1.71532 13.9189 0.804807 13.5504 0.327776C13.2973 8.09133e-05 12.9825 0.15387 12.848 0.219573C12.6202 0.330823 12.4959 0.336682 12.2862 0.199495C11.8862 -0.0622628 11.4657 -0.0707003 11.0528 0.199495C10.8404 0.33844 10.6732 0.33844 10.4609 0.199495C10.0609 -0.0622628 9.64055 -0.0707003 9.22754 0.199495C9.01543 0.338323 8.8907 0.329729 8.66641 0.218245C8.53211 0.151487 8.21762 -0.00484098 7.96293 0.322893C7.60273 0.786487 7.84371 1.66828 8.69898 3.01207C8.6466 3.04039 8.59668 3.07364 8.55008 3.1116C8.20992 2.75239 7.65262 2.37774 6.84668 2.46774C6.1782 2.54254 5.68527 2.32164 5.38941 2.12321C5.25504 2.03321 5.07309 2.06907 4.98301 2.20336C4.89293 2.33774 4.92883 2.51969 5.06316 2.60977C5.44031 2.86262 6.06711 3.1441 6.91168 3.04992C7.53434 2.98008 7.95684 3.29828 8.21984 3.62211C8.21625 3.63461 8.21293 3.64719 8.20984 3.65977C7.98551 3.66328 7.65023 3.68422 7.28102 3.76102C6.39305 3.94574 5.73391 4.36774 5.3748 4.98149C5.29313 5.1211 5.34008 5.30055 5.47969 5.38227C5.61934 5.46395 5.79875 5.41696 5.88043 5.27735C6.41457 4.36449 7.71836 4.25285 8.23621 4.24586C8.23844 4.25231 8.24105 4.25867 8.2434 4.26508C6.39543 5.69059 5.10887 7.28032 4.41793 8.99321C3.98121 10.0759 3.80676 11.1606 3.89531 12.1914C3.61441 12.1498 3.33027 12.1275 3.04477 12.1256V11.9484C3.04477 11.4797 2.66344 11.0984 2.19473 11.0984H0.850039C0.381328 11.0984 0 11.4798 0 11.9484V18.7705C0 19.2392 0.381328 19.6205 0.850039 19.6205H2.19469C2.6634 19.6205 3.04473 19.2392 3.04473 18.7705V18.687L5.97797 19.7788C6.37215 19.9255 6.78527 19.9999 7.20586 19.9999H11.5764C12.2446 19.9999 12.8961 19.8108 13.4605 19.4532C19.2909 15.7571 18.9369 15.9871 18.9705 15.9572C19.4402 15.5404 19.5279 14.8343 19.1746 14.315ZM12.2379 4.30832C11.1667 4.57879 10.1252 4.57879 9.05383 4.30832C8.5941 4.19211 8.7273 3.37219 9.22137 3.4961C10.1799 3.73672 11.1118 3.73672 12.0704 3.4961C12.5558 3.37422 12.705 4.19028 12.2379 4.30832ZM8.39887 0.739534C8.40117 0.740667 8.40348 0.741839 8.40566 0.742932C8.80211 0.939964 9.14949 0.950667 9.54828 0.689768C10.0473 0.363089 10.1015 0.886878 10.7568 0.886878C11.0723 0.886878 11.2464 0.772972 11.3735 0.689768C11.5859 0.550784 11.7531 0.550862 11.9655 0.689768C12.366 0.951878 12.705 0.938948 13.113 0.74219C13.1732 0.959456 13.0368 1.60715 12.1682 2.90035C11.7369 2.89301 11.111 3.31664 9.33902 2.92231C8.47231 1.61239 8.33828 0.958401 8.39887 0.739534ZM18.5975 15.5048L13.147 18.9586C12.6765 19.2566 12.1334 19.4143 11.5764 19.4143H7.2059C6.85531 19.4143 6.51094 19.3522 6.18234 19.2299L3.04473 18.0621V14.9076C3.04473 14.7458 2.91359 14.6147 2.75184 14.6147C2.59008 14.6147 2.45895 14.7458 2.45895 14.9076V18.7706C2.45895 18.9163 2.34039 19.0348 2.19473 19.0348H0.850039C0.704336 19.0348 0.58582 18.9163 0.58582 18.7706V11.9486C0.58582 11.8029 0.704336 11.6844 0.850039 11.6844H2.19469C2.34039 11.6844 2.45891 11.8029 2.45891 11.9486V13.5382C2.45891 13.7 2.59004 13.8311 2.7518 13.8311C2.91355 13.8311 3.04469 13.7 3.04469 13.5382V12.7116C5.46777 12.7301 6.01258 14.0073 7.67266 14.2421C7.67516 14.2425 7.67766 14.2428 7.68016 14.243L10.9207 14.6161C11.4881 14.698 11.9248 15.1499 11.988 15.7188L11.9839 16.2759H8.96184C8.80008 16.2759 8.66891 16.4071 8.66891 16.5689C8.66891 16.7307 8.80004 16.8618 8.96184 16.8618H12.2747C12.3117 16.8618 12.3544 16.8536 12.3916 16.8374C12.3976 16.8347 17.7144 14.4938 17.7206 14.4911C18.1038 14.3208 18.4532 14.2964 18.6902 14.6447C18.8744 14.9152 18.8336 15.2811 18.5975 15.5048Z" fill="var(--fill-0, black)"/>
<path id="Vector_2" d="M10.7236 13.2898C10.8854 13.2898 11.0166 13.1587 11.0166 12.9969V12.5113C11.8389 12.3779 12.3187 11.7123 12.4231 11.0914C12.5535 10.3157 12.1472 9.64114 11.388 9.37282C11.2539 9.3254 11.1304 9.28005 11.0165 9.23626V7.3686C11.3631 7.42606 11.5711 7.6054 11.5863 7.6188C11.7052 7.727 11.8894 7.71899 11.9986 7.60063C12.1083 7.48173 12.1008 7.29642 11.9818 7.18673C11.9612 7.16767 11.6024 6.84466 11.0165 6.77712V6.36056C11.0165 6.19876 10.8854 6.06763 10.7236 6.06763C10.5618 6.06763 10.4307 6.19876 10.4307 6.36056V6.80079C10.3601 6.81431 10.2877 6.83149 10.2134 6.85388C9.71654 7.00353 9.34513 7.42958 9.24408 7.96571C9.1524 8.45224 9.30665 8.92013 9.64662 9.18677C9.84181 9.33985 10.0875 9.48001 10.4307 9.62985V11.9463C10.092 11.932 9.88345 11.8684 9.5197 11.6304C9.38435 11.5419 9.20279 11.5797 9.11423 11.7152C9.02568 11.8505 9.06361 12.0321 9.199 12.1206C9.67716 12.4334 9.99681 12.515 10.4307 12.5319V12.9969C10.4307 13.1587 10.5618 13.2898 10.7236 13.2898ZM10.0082 8.72583C9.84095 8.59466 9.76872 8.34497 9.81978 8.07423C9.86712 7.82313 10.0397 7.51806 10.3824 7.41485C10.3987 7.40993 10.4147 7.40571 10.4307 7.40142V8.98364C10.2553 8.89606 10.1178 8.81181 10.0082 8.72583ZM11.1928 9.92517C11.9217 10.1828 11.8765 10.8086 11.8453 10.9943C11.7807 11.3787 11.4985 11.7891 11.0165 11.9126V9.86169C11.0736 9.88255 11.1318 9.9036 11.1928 9.92517Z" fill="var(--fill-0, black)"/>
</g>
</svg>
