<svg preserveAspectRatio="none" width="100%" height="100%" overflow="visible" style="display: block;" viewBox="0 0 20 20" fill="none" xmlns="http://www.w3.org/2000/svg">
<g id="fi_18132311" clip-path="url(#clip0_12996_4337)">
<path id="Vector" fill-rule="evenodd" clip-rule="evenodd" d="M9.99691 0.85911C15.0402 0.85911 19.1347 4.95361 19.1347 9.99688C19.1347 15.0402 15.0402 19.1346 9.99691 19.1346C4.95364 19.1346 0.859138 15.0402 0.859138 9.99688C0.859138 4.95361 4.95364 0.85911 9.99691 0.85911ZM9.99691 1.64011C5.38468 1.64011 1.64014 5.38465 1.64014 9.99688C1.64014 14.6091 5.38468 18.3536 9.99691 18.3536C14.6091 18.3536 18.3537 14.6091 18.3537 9.99688C18.3537 5.38465 14.6091 1.64011 9.99691 1.64011ZM9.99691 2.33771C14.2241 2.33771 17.6561 5.76967 17.6561 9.99688C17.6561 14.2241 14.2241 17.656 9.99691 17.656C5.7697 17.656 2.33774 14.2241 2.33774 9.99688C2.33774 5.76967 5.7697 2.33771 9.99691 2.33771ZM9.99691 3.11873C6.20075 3.11873 3.11875 6.20072 3.11875 9.99688C3.11875 13.793 6.20075 16.875 9.99691 16.875C13.7931 16.875 16.8751 13.793 16.8751 9.99688C16.8751 6.20072 13.7931 3.11873 9.99691 3.11873ZM7.60607 9.05941C6.85189 8.86112 6.27259 8.10163 6.27259 7.17136V5.62324C6.27259 5.40772 6.44757 5.23274 6.66309 5.23274C6.87862 5.23274 7.0536 5.40772 7.0536 5.62324V7.17136C7.0536 7.63252 7.27414 8.04358 7.60607 8.22725V5.62324C7.60607 5.40772 7.78105 5.23274 7.99657 5.23274C8.2121 5.23274 8.38708 5.40772 8.38708 5.62324V8.22725C8.71901 8.04358 8.93955 7.63252 8.93955 7.17136V5.62324C8.93955 5.40772 9.11453 5.23274 9.33006 5.23274C9.54558 5.23274 9.72055 5.40772 9.72055 5.62324V7.17136C9.72055 8.10163 9.14126 8.86112 8.38708 9.05941V14.3705C8.38708 14.586 8.2121 14.761 7.99657 14.761C7.78105 14.761 7.60607 14.586 7.60607 14.3705V9.05941ZM12.8866 14.3705C12.8866 14.586 12.7116 14.761 12.4961 14.761C12.2806 14.761 12.1056 14.586 12.1056 14.3705C12.1056 14.3705 12.1056 13.1188 12.1056 11.6209C11.1585 11.4633 10.4009 10.7393 10.4009 9.75156C10.4009 6.60616 12.2694 5.30528 12.2694 5.30528C12.3885 5.22039 12.545 5.20914 12.675 5.2761C12.8049 5.34306 12.8866 5.47703 12.8866 5.62324V14.3705ZM12.1056 10.8234C12.1056 8.77954 12.1056 6.6118 12.1056 6.61179C11.6768 7.21142 11.1819 8.23248 11.1819 9.75156C11.1819 10.3018 11.5899 10.6919 12.1056 10.8234Z" fill="var(--fill-0, #282828)"/>
</g>
<defs>
<clipPath id="clip0_12996_4337">
<rect width="20" height="20" fill="white"/>
</clipPath>
</defs>
</svg>
