<svg preserveAspectRatio="none" width="100%" height="100%" overflow="visible" style="display: block;" viewBox="0 0 20 20" fill="none" xmlns="http://www.w3.org/2000/svg">
<g id="fi_17584168">
<path id="Vector" d="M17.9068 7.09776L13.5771 6.4687C13.364 6.43745 13.1796 6.3037 13.084 6.11058L11.1478 2.18683C10.9306 1.74683 10.4906 1.47339 9.99996 1.47339C9.50933 1.47339 9.06933 1.74683 8.85215 2.18683L6.9159 6.11026C6.82027 6.3037 6.6359 6.43776 6.42277 6.4687L2.09277 7.09776C1.60715 7.16839 1.21121 7.50214 1.05965 7.9687C0.908083 8.43558 1.03215 8.9387 1.3834 9.28089L4.51652 12.3346C4.6709 12.4853 4.74121 12.7021 4.70496 12.9146L3.96527 17.2268C3.88246 17.7106 4.07746 18.1903 4.47465 18.479C4.69902 18.6418 4.96152 18.7246 5.22558 18.7246C5.42902 18.7246 5.6334 18.6756 5.82246 18.5759L9.69527 16.54C9.88621 16.44 10.114 16.44 10.305 16.54L14.1778 18.5759C14.6115 18.8043 15.1284 18.7668 15.5256 18.4787C15.9228 18.19 16.1181 17.7103 16.035 17.2265L15.2953 12.9143C15.2587 12.7015 15.329 12.485 15.4837 12.3343L18.6168 9.28058C18.9684 8.93808 19.0921 8.43526 18.9406 7.96839C18.789 7.50183 18.3931 7.16776 17.9071 7.09745L17.9068 7.09776ZM18.18 8.8337L15.0468 11.8875C14.7453 12.1818 14.6078 12.6056 14.6787 13.0206L15.4184 17.3328C15.4615 17.5843 15.364 17.8234 15.1578 17.9737C14.9515 18.1234 14.6934 18.1412 14.4681 18.0234L10.5953 15.9875C10.2225 15.7909 9.77683 15.7909 9.40402 15.9875L5.53121 18.0234C5.30558 18.1415 5.04777 18.1231 4.84152 17.9737C4.63527 17.8237 4.53777 17.5843 4.5809 17.3328L5.32058 13.0206C5.39183 12.6056 5.25433 12.1818 4.95246 11.8875L1.81933 8.8337C1.63683 8.65589 1.57465 8.40464 1.6534 8.16214C1.73215 7.91995 1.92996 7.75308 2.18215 7.7162L6.51183 7.08714C6.92871 7.02683 7.28902 6.76495 7.47558 6.38714L9.41183 2.46339C9.52465 2.23495 9.74433 2.09839 9.99933 2.09839C10.2543 2.09839 10.474 2.23495 10.5865 2.46339L12.5231 6.38745C12.7096 6.76495 13.07 7.02683 13.4868 7.08714L17.8165 7.7162C18.069 7.75308 18.2665 7.91964 18.3453 8.16214C18.424 8.40464 18.3621 8.65589 18.1793 8.8337H18.18Z" fill="var(--fill-0, black)"/>
<path id="Vector_2" d="M9.99938 6.50464C7.66469 6.50464 5.76562 8.4037 5.76562 10.7384C5.76562 12.0868 6.41656 13.3659 7.50656 14.1587C8.23219 14.6909 9.09437 14.9725 9.99969 14.9725C10.1128 14.9725 10.2253 14.9681 10.3369 14.9593C10.4609 14.9496 10.5834 14.9334 10.705 14.9131C11.2978 14.814 11.8581 14.5884 12.3594 14.2487C12.4037 14.2187 12.4491 14.1906 12.4925 14.1587C12.4931 14.1584 12.4934 14.1578 12.4937 14.1575C13.5831 13.364 14.2334 12.0859 14.2334 10.7384C14.2334 8.4037 12.3338 6.50464 9.99938 6.50464ZM9.72125 14.3365C9.69063 14.3343 9.66031 14.3296 9.62969 14.3265C9.56875 14.3203 9.50781 14.3143 9.4475 14.305C9.41156 14.2993 9.37625 14.2918 9.34063 14.2853C9.28625 14.2753 9.23156 14.2653 9.17781 14.2528C9.14094 14.2443 9.10469 14.2337 9.06813 14.224C9.01656 14.2103 8.965 14.1965 8.91438 14.1806C8.8775 14.169 8.84125 14.1556 8.80469 14.1428C8.755 14.1253 8.70563 14.1075 8.65688 14.0878C8.62094 14.0734 8.58531 14.0575 8.55 14.0418C8.50187 14.0206 8.45406 13.9987 8.40656 13.9753C8.37188 13.9581 8.3375 13.94 8.30344 13.9215C8.25656 13.8962 8.21 13.8703 8.16438 13.8428C8.13125 13.8231 8.09844 13.8028 8.06563 13.7818C8.04469 13.7684 8.02438 13.754 8.00375 13.7403V12.9418C8.00375 12.3034 8.4075 11.7296 9.00875 11.514C9.17156 11.4553 9.34281 11.4256 9.51875 11.4256H9.98625C9.99063 11.4256 9.995 11.4268 9.99938 11.4268C10.0038 11.4268 10.0081 11.4256 10.0125 11.4256H10.48C10.6553 11.4256 10.8303 11.4568 10.9997 11.5184C11.595 11.735 11.995 12.3071 11.995 12.9421V13.7406C11.9744 13.7543 11.9541 13.769 11.9331 13.7825C11.9003 13.8034 11.8672 13.824 11.8334 13.844C11.7881 13.8709 11.7425 13.8965 11.6966 13.9215C11.6616 13.9403 11.6262 13.959 11.5906 13.9765C11.5444 13.9993 11.4975 14.0209 11.4503 14.0415C11.4141 14.0575 11.3775 14.0737 11.3406 14.0884C11.2928 14.1078 11.2441 14.1253 11.1953 14.1421C11.1581 14.1553 11.1209 14.1687 11.0834 14.1806C11.0334 14.1962 10.9828 14.21 10.9319 14.2234C10.8947 14.2334 10.8575 14.244 10.82 14.2528C10.7666 14.2653 10.7125 14.275 10.6584 14.285C10.6225 14.2915 10.5872 14.2993 10.5509 14.305C10.4906 14.314 10.4297 14.3203 10.3687 14.3265C10.3381 14.3296 10.3078 14.3343 10.2772 14.3365C10.185 14.3434 10.0925 14.3475 9.99906 14.3475C9.90563 14.3475 9.81312 14.3437 9.72094 14.3365H9.72125ZM10.9922 9.90026C10.9437 10.41 10.5234 10.7943 10.0122 10.8009H9.98594C9.475 10.7943 9.05437 10.41 9.00469 9.8887C9.00125 9.86151 9.00031 9.83183 9.00031 9.8037C9.00031 9.25308 9.44844 8.80526 9.99875 8.80526C10.5491 8.80526 10.9975 9.25339 10.9975 9.8037C10.9975 9.83245 10.9966 9.86245 10.9919 9.90058L10.9922 9.90026ZM12.6197 13.2081V12.9421C12.6197 12.0456 12.0544 11.2375 11.2131 10.9312C11.2 10.9265 11.1863 10.925 11.1731 10.9203C11.4141 10.6675 11.5781 10.3403 11.6134 9.96933C11.6203 9.9162 11.6231 9.8587 11.6231 9.80308C11.6231 8.90808 10.8947 8.17964 9.99938 8.17964C9.10406 8.17964 8.37594 8.90808 8.37594 9.80308C8.37594 9.85901 8.37844 9.91714 8.38438 9.95901C8.42 10.3346 8.58438 10.6643 8.82531 10.9184C8.81625 10.9215 8.80625 10.9225 8.79719 10.9259C7.94875 11.2303 7.37875 12.0403 7.37875 12.9418V13.2078C6.75438 12.5443 6.39062 11.6621 6.39062 10.7378C6.39062 8.74808 8.00969 7.12901 9.99938 7.12901C11.9891 7.12901 13.6081 8.74808 13.6081 10.7378C13.6081 11.6621 13.2444 12.544 12.62 13.2078L12.6197 13.2081Z" fill="var(--fill-0, black)"/>
</g>
</svg>
