<svg preserveAspectRatio="none" width="100%" height="100%" overflow="visible" style="display: block;" viewBox="0 0 11.375 11.375" fill="none" xmlns="http://www.w3.org/2000/svg">
<g id="Icon" clip-path="url(#clip0_13171_8076)">
<path id="Vector" d="M0 5.68758H3.79167M3.79167 5.68758C3.79167 5.18478 3.99141 4.70256 4.34694 4.34702C4.70248 3.99149 5.18469 3.79175 5.6875 3.79175C6.19031 3.79175 6.67252 3.99149 7.02806 4.34702C7.38359 4.70256 7.58333 5.18478 7.58333 5.68758M3.79167 5.68758C3.79167 6.19039 3.99141 6.6726 4.34694 7.02814C4.70248 7.38368 5.18469 7.58342 5.6875 7.58342C6.19031 7.58342 6.67252 7.38368 7.02806 7.02814C7.38359 6.6726 7.58333 6.19039 7.58333 5.68758M7.58333 5.68758H11.375" stroke="var(--stroke-0, #3B82F6)" stroke-width="1.42188"/>
</g>
<defs>
<clipPath id="clip0_13171_8076">
<rect width="11.375" height="11.375" fill="white"/>
</clipPath>
</defs>
</svg>
