<svg preserveAspectRatio="none" width="100%" height="100%" overflow="visible" style="display: block;" viewBox="0 0 91.6109 38.0048" fill="none" xmlns="http://www.w3.org/2000/svg">
<g id="Petzy">
<path id="Vector" d="M81.4762 29.3482C75.8599 29.3482 71.3415 24.8298 71.3415 19.2558V9.75453H75.0575V19.2558C75.0998 22.7607 77.9713 25.5899 81.4762 25.5899C84.9811 25.5899 87.8526 22.7607 87.8949 19.2558V9.75453H91.6109V19.2558C91.5687 24.8298 87.0503 29.3482 81.4762 29.3482ZM91.6109 28.7148C91.6109 32.7264 88.1482 38.0048 81.4762 38.0048H78.5202V34.2888H81.4762C86.7547 34.2888 87.8949 29.8127 87.8949 28.7148H91.6109Z" fill="var(--fill-0, #FF7176)"/>
<path id="Vector_2" d="M68.9156 25.0411V28.7571H52.7845V24.9989C60.0477 17.4401 56.4161 21.2406 63.7215 13.6396H52.7845V9.92359H68.9156V13.5974C61.779 21.2406 65.3684 17.3979 58.2319 25.0411H68.9156Z" fill="var(--fill-0, #FF7176)"/>
<path id="Vector_3" d="M50.6298 25.6744V29.3904C45.0134 29.3904 40.495 24.8721 40.495 19.2558V0.0421867H44.2111V9.75455H49.194V13.4706H44.2111V19.2558C44.2111 22.8029 47.0826 25.6744 50.6298 25.6744Z" fill="var(--fill-0, #FF7176)"/>
<path id="Vector_4" d="M29.0057 25.6322H29.0479C30.9482 25.6322 32.764 24.7877 33.9886 23.3097L37.1979 25.21C35.0865 28.0815 32.1305 29.3483 29.2168 29.3483C23.9805 29.3483 18.9132 25.3789 18.9132 19.2559C18.9132 12.8373 24.065 9.12123 29.2168 9.12123C33.144 9.12123 37.0712 11.3171 38.6337 16.0466L24.7829 24.0276C25.9653 25.0833 27.4855 25.6322 29.0057 25.6322ZM22.587 19.1292C22.587 19.7204 22.6715 20.3116 22.8404 20.9027C29.9769 16.7644 26.3875 18.8336 33.5663 14.6953C32.2572 13.3862 30.6526 12.795 29.1324 12.795C25.7963 12.795 22.587 15.4976 22.587 19.1292Z" fill="var(--fill-0, #FF7176)"/>
<path id="Vector_5" d="M9.47714e-06 0H10.3036C15.2865 0 19.2982 4.05386 19.2982 8.99449C19.2982 13.9774 15.2865 18.0312 10.3036 18.0312H3.71608V28.7148H9.47714e-06V0ZM3.71608 14.3152H10.2614C13.2174 14.3152 15.5821 11.9504 15.5821 9.03672C15.5821 6.08079 13.2174 3.71603 10.2614 3.71603H3.71608V14.3152Z" fill="var(--fill-0, #FF7176)"/>
</g>
</svg>
