<svg preserveAspectRatio="none" width="100%" height="100%" overflow="visible" style="display: block;" viewBox="0 0 14.5833 14.5833" fill="none" xmlns="http://www.w3.org/2000/svg">
<g id="Group">
<path id="Vector" d="M7.29167 0C7.63683 0 7.91667 0.279825 7.91667 0.625C7.91667 0.970175 7.63683 1.25 7.29167 1.25C3.95495 1.25 1.25 3.95495 1.25 7.29167C1.25 10.6284 3.95495 13.3333 7.29167 13.3333C7.63683 13.3333 7.91667 13.6132 7.91667 13.9583C7.91667 14.3035 7.63683 14.5833 7.29167 14.5833C3.26459 14.5833 0 11.3188 0 7.29167C0 3.26459 3.26459 0 7.29167 0Z" fill="var(--fill-0, black)"/>
<path id="Vector_2" d="M11.0164 5.23361C10.7723 4.98953 10.7723 4.5938 11.0164 4.34973C11.2605 4.10565 11.6562 4.10565 11.9003 4.34973L14.4003 6.84975C14.6443 7.09383 14.6443 7.4895 14.4003 7.73358L11.9003 10.2336C11.6562 10.4777 11.2605 10.4777 11.0164 10.2336C10.7723 9.9895 10.7723 9.59383 11.0164 9.34975L12.4494 7.91667H5.625C5.27983 7.91667 5 7.63683 5 7.29167C5 6.9465 5.27983 6.66667 5.625 6.66667H12.4494L11.0164 5.23361Z" fill="var(--fill-0, black)"/>
</g>
</svg>
