<svg preserveAspectRatio="none" width="100%" height="100%" overflow="visible" style="display: block;" viewBox="0 0 19.5 19.5" fill="none" xmlns="http://www.w3.org/2000/svg">
<g id="Icon">
<path id="Vector" d="M8.125 17.875V12.5369" stroke="var(--stroke-0, #9810FA)" stroke-width="1.625" stroke-linecap="round" stroke-linejoin="round"/>
<path id="Vector_2" d="M9.75 8.9375H9.75898" stroke="var(--stroke-0, #9810FA)" stroke-width="1.625" stroke-linecap="round" stroke-linejoin="round"/>
<path id="Vector_3" d="M9.75 5.6875H9.75898" stroke="var(--stroke-0, #9810FA)" stroke-width="1.625" stroke-linecap="round" stroke-linejoin="round"/>
<path id="Vector_4" d="M11.375 12.5369V17.875" stroke="var(--stroke-0, #9810FA)" stroke-width="1.625" stroke-linecap="round" stroke-linejoin="round"/>
<path id="Vector_5" d="M12.1875 13C11.4843 12.4726 10.629 12.1875 9.75 12.1875C8.871 12.1875 8.0157 12.4726 7.3125 13" stroke="var(--stroke-0, #9810FA)" stroke-width="1.625" stroke-linecap="round" stroke-linejoin="round"/>
<path id="Vector_6" d="M13 8.9375H13.009" stroke="var(--stroke-0, #9810FA)" stroke-width="1.625" stroke-linecap="round" stroke-linejoin="round"/>
<path id="Vector_7" d="M13 5.6875H13.009" stroke="var(--stroke-0, #9810FA)" stroke-width="1.625" stroke-linecap="round" stroke-linejoin="round"/>
<path id="Vector_8" d="M6.50019 8.93748H6.50917" stroke="var(--stroke-0, #9810FA)" stroke-width="1.625" stroke-linecap="round" stroke-linejoin="round"/>
<path id="Vector_9" d="M6.50019 5.68759H6.50917" stroke="var(--stroke-0, #9810FA)" stroke-width="1.625" stroke-linecap="round" stroke-linejoin="round"/>
<path id="Vector_10" d="M14.6248 1.62512H4.87481C3.97735 1.62512 3.24981 2.35266 3.24981 3.25012V16.2501C3.24981 17.1476 3.97735 17.8751 4.87481 17.8751H14.6248C15.5223 17.8751 16.2498 17.1476 16.2498 16.2501V3.25012C16.2498 2.35266 15.5223 1.62512 14.6248 1.62512Z" stroke="var(--stroke-0, #9810FA)" stroke-width="1.625" stroke-linecap="round" stroke-linejoin="round"/>
</g>
</svg>
