<svg preserveAspectRatio="none" width="100%" height="100%" overflow="visible" style="display: block;" viewBox="0 0 16.8186 16.8155" fill="none" xmlns="http://www.w3.org/2000/svg">
<g id="Group 98">
<path id="Vector" d="M8.25963 0.0126042C8.409 0.0133528 8.5583 0.0126081 8.70767 0.0117178C9.96615 0.0100358 9.96615 0.0100358 10.2915 0.286637C10.3908 0.509196 10.4369 0.725203 10.4821 0.964661C10.5084 1.0994 10.5084 1.0994 10.5353 1.23685C10.5695 1.46853 10.5813 1.6824 10.5737 1.91597C10.6726 1.94956 10.7715 1.98298 10.8705 2.01634C10.9256 2.03497 10.9806 2.0536 11.0374 2.07279C11.0917 2.09016 11.1461 2.10753 11.2021 2.12543C11.2466 2.14131 11.2911 2.15719 11.337 2.17355C11.4821 2.20963 11.4821 2.20963 11.6026 2.13378C11.6423 2.10169 11.6821 2.06959 11.723 2.03652C11.7675 2.00196 11.812 1.9674 11.8578 1.93179C11.9035 1.89489 11.9492 1.85798 11.9963 1.81996C12.5773 1.35241 12.5773 1.35241 12.9476 1.3574C13.9162 1.73364 14.8732 2.78072 15.3914 3.66149C15.4586 3.86244 15.4707 3.97245 15.4192 4.17805C15.3138 4.37419 15.1887 4.52861 15.0467 4.69905C14.716 5.08614 14.716 5.08614 14.6397 5.56683C14.7135 5.7584 14.7996 5.92807 14.9026 6.10521C14.9026 6.15129 14.9026 6.19737 14.9026 6.24485C14.9824 6.24998 14.9824 6.24998 15.0638 6.25522C16.0811 6.32888 16.0811 6.32888 16.539 6.5285C16.9006 6.97679 16.8092 7.71469 16.806 8.25963C16.8052 8.409 16.806 8.5583 16.8069 8.70767C16.8086 9.96615 16.8086 9.96615 16.5319 10.2915C16.3094 10.3908 16.0934 10.4369 15.8539 10.4821C15.7192 10.5084 15.7192 10.5084 15.5817 10.5353C15.3501 10.5695 15.1362 10.5813 14.9026 10.5737C14.869 10.6726 14.8356 10.7715 14.8023 10.8705C14.7836 10.9256 14.765 10.9806 14.7458 11.0374C14.7284 11.0917 14.7111 11.1461 14.6932 11.2021C14.6773 11.2466 14.6614 11.2911 14.645 11.337C14.609 11.4821 14.609 11.4821 14.6848 11.6026C14.7329 11.6622 14.7329 11.6622 14.7821 11.723C14.8166 11.7675 14.8512 11.812 14.8868 11.8578C14.9237 11.9035 14.9606 11.9492 14.9986 11.9963C15.4662 12.5773 15.4662 12.5773 15.4612 12.9476C15.0849 13.9162 14.0379 14.8732 13.1571 15.3914C12.9561 15.4586 12.8461 15.4707 12.6405 15.4192C12.4444 15.3138 12.29 15.1887 12.1195 15.0467C11.7324 14.716 11.7324 14.716 11.2518 14.6397C11.0602 14.7135 10.8905 14.7996 10.7134 14.9026C10.6673 14.9026 10.6212 14.9026 10.5737 14.9026C10.5686 14.9824 10.5686 14.9824 10.5634 15.0638C10.475 16.2845 10.475 16.2845 10.1548 16.6481C9.62553 16.8702 8.97017 16.8086 8.40929 16.8052C8.31839 16.8058 8.22749 16.8063 8.13383 16.8069C7.03688 16.8047 7.03688 16.8047 6.66378 16.6481C6.44111 16.4053 6.39711 16.1753 6.33649 15.8539C6.31894 15.7641 6.30139 15.6743 6.28331 15.5817C6.24907 15.3501 6.23726 15.1362 6.24485 14.9026C6.14598 14.869 6.04706 14.8356 5.94811 14.8023C5.89303 14.7836 5.83795 14.765 5.7812 14.7458C5.72684 14.7284 5.67247 14.7111 5.61647 14.6932C5.57202 14.6773 5.52758 14.6614 5.48178 14.645C5.3364 14.609 5.3364 14.609 5.21488 14.6848C5.17468 14.7169 5.13449 14.749 5.09308 14.7821C5.04831 14.8166 5.00353 14.8512 4.9574 14.8868C4.91136 14.9237 4.86532 14.9606 4.81789 14.9986C4.25222 15.448 4.25222 15.448 3.94077 15.4612C2.93805 15.1804 1.93822 14.0257 1.42722 13.1571C1.36003 12.9561 1.34784 12.8461 1.3994 12.6405C1.50483 12.4444 1.62993 12.29 1.77186 12.1195C2.10259 11.7324 2.10259 11.7324 2.17889 11.2518C2.10509 11.0602 2.01897 10.8905 1.91597 10.7134C1.91597 10.6673 1.91597 10.6212 1.91597 10.5737C1.83618 10.5686 1.83618 10.5686 1.75478 10.5634C0.737502 10.4897 0.737502 10.4897 0.279546 10.2901C-0.0819834 9.84179 0.00935612 9.10389 0.0126042 8.55896C0.0133528 8.40959 0.0126081 8.26028 0.0117178 8.11092C0.0100358 6.85243 0.0100358 6.85243 0.286637 6.52713C0.509196 6.42776 0.725203 6.38166 0.964661 6.33649C1.05448 6.31894 1.14431 6.30139 1.23685 6.28331C1.46853 6.24907 1.6824 6.23726 1.91597 6.24485C1.94956 6.14598 1.98298 6.04706 2.01634 5.94811C2.03497 5.89303 2.0536 5.83795 2.07279 5.7812C2.09016 5.72684 2.10753 5.67247 2.12543 5.61647C2.14925 5.54972 2.14925 5.54972 2.17355 5.48163C2.20963 5.3365 2.20963 5.3365 2.13378 5.21598C2.10169 5.17624 2.06959 5.13649 2.03652 5.09554C2.00196 5.05108 1.9674 5.00661 1.93179 4.96081C1.89489 4.91508 1.85798 4.86936 1.81996 4.82225C1.35241 4.24129 1.35241 4.24129 1.3574 3.87095C1.73364 2.90242 2.78072 1.9454 3.66149 1.42722C3.86244 1.36003 3.97245 1.34784 4.17805 1.3994C4.37419 1.50483 4.52861 1.62993 4.69905 1.77186C5.08614 2.10259 5.08614 2.10259 5.56683 2.17889C5.7584 2.10509 5.92807 2.01897 6.10521 1.91597C6.15129 1.91597 6.19737 1.91597 6.24485 1.91597C6.24827 1.86278 6.25169 1.80958 6.25522 1.75478C6.32888 0.737502 6.32888 0.737502 6.5285 0.279546C6.97679 -0.0819834 7.71469 0.00935612 8.25963 0.0126042ZM7.50162 1.21776C7.49426 1.26108 7.4869 1.3044 7.47931 1.34903C7.44543 1.54544 7.41027 1.74161 7.37507 1.93779C7.36351 2.00596 7.35194 2.07414 7.34003 2.14439C7.3281 2.20986 7.31618 2.27534 7.30389 2.3428C7.29329 2.40313 7.28268 2.46346 7.27176 2.52562C7.21568 2.70536 7.15989 2.77804 7.01288 2.89346C6.85647 2.95719 6.6975 3.01476 6.53723 3.06801C6.28756 3.1515 6.05924 3.22917 5.82947 3.3582C5.56428 3.47501 5.34013 3.50889 5.0579 3.45202C4.85454 3.35754 4.67958 3.23551 4.49933 3.10292C4.4519 3.06962 4.40447 3.03632 4.3556 3.00201C4.23977 2.92044 4.12506 2.83728 4.01059 2.75382C3.48883 2.9915 3.11024 3.43432 2.75382 3.87095C2.88472 4.24311 3.10375 4.53815 3.32793 4.85962C3.50644 5.14485 3.50644 5.14485 3.52184 5.33718C3.47984 5.48282 3.47984 5.48282 3.40839 5.64265C3.24459 6.02295 3.11188 6.4106 2.98046 6.80314C2.89601 7.00674 2.8515 7.08803 2.684 7.22234C2.52562 7.27176 2.52562 7.27176 2.3428 7.30389C2.28379 7.31471 2.22477 7.32552 2.16397 7.33667C2.05201 7.35568 2.05201 7.35568 1.93779 7.37507C1.70018 7.41684 1.46257 7.4586 1.21776 7.50162C1.21776 8.10069 1.21776 8.69975 1.21776 9.31696C1.69071 9.40035 1.69071 9.40035 2.16397 9.48192C2.22299 9.49273 2.282 9.50355 2.3428 9.5147C2.40313 9.5253 2.46346 9.5359 2.52562 9.54683C2.70512 9.60284 2.77795 9.65913 2.89346 9.80571C2.95589 9.9562 3.01192 10.1094 3.06365 10.2639C3.1678 10.5729 3.27945 10.8675 3.41711 11.1628C3.51025 11.3984 3.52642 11.4608 3.46948 11.717C3.40593 11.8302 3.40593 11.8302 3.31238 11.9701C3.26639 12.0415 3.2204 12.1129 3.17301 12.1864C3.03583 12.3955 2.89601 12.6023 2.75382 12.808C2.9915 13.3298 3.43432 13.7083 3.87095 14.0648C4.16105 13.964 4.37877 13.8178 4.62588 13.6371C5.15317 13.2856 5.15317 13.2856 5.46346 13.3199C5.75762 13.4096 6.03049 13.5432 6.3054 13.6797C6.48578 13.7669 6.6568 13.8342 6.84706 13.8946C7.12861 14.0145 7.16498 14.0712 7.29216 14.3441C7.34508 14.559 7.37836 14.7753 7.40998 14.9943C7.41903 15.0526 7.42808 15.111 7.43739 15.1711C7.45948 15.3143 7.48064 15.4575 7.50162 15.6008C8.11854 15.6601 8.70113 15.6697 9.31696 15.6008C9.32433 15.5575 9.33169 15.5142 9.33928 15.4696C9.37316 15.2731 9.40832 15.077 9.44351 14.8808C9.45508 14.8126 9.46664 14.7444 9.47856 14.6742C9.49048 14.6087 9.50241 14.5432 9.5147 14.4758C9.5253 14.4155 9.5359 14.3551 9.54683 14.293C9.60291 14.1132 9.65869 14.0405 9.80571 13.9251C9.96211 13.8614 10.1211 13.8038 10.2814 13.7506C10.531 13.6671 10.7593 13.5894 10.9891 13.4604C11.2543 13.3436 11.4785 13.3097 11.7607 13.3666C11.964 13.461 12.139 13.5831 12.3193 13.7157C12.3667 13.749 12.4141 13.7823 12.463 13.8166C12.5788 13.8981 12.6935 13.9813 12.808 14.0648C13.3298 13.8271 13.7083 13.3843 14.0648 12.9476C13.9345 12.5767 13.7157 12.2849 13.4907 11.9658C13.3659 11.7596 13.3014 11.651 13.2967 11.4116C13.3651 11.2209 13.4366 11.0477 13.5237 10.8661C13.5678 10.7712 13.6118 10.6762 13.6557 10.5811C13.6778 10.5342 13.6999 10.4872 13.7226 10.4388C13.7865 10.2921 13.8354 10.1446 13.8848 9.99253C13.9543 9.80709 13.9905 9.73989 14.142 9.60361C14.4216 9.4968 14.6989 9.45131 14.9943 9.4086C15.1944 9.37836 15.3946 9.34812 15.6008 9.31696C15.6008 8.7179 15.6008 8.11884 15.6008 7.50162C15.1279 7.41823 15.1279 7.41823 14.6546 7.33667C14.5956 7.32585 14.5366 7.31503 14.4758 7.30389C14.4155 7.29329 14.3551 7.28268 14.293 7.27176C14.1134 7.21573 14.0406 7.15959 13.9251 7.01288C13.8628 6.86087 13.8067 6.70623 13.7549 6.55032C13.639 6.20387 13.5099 5.87762 13.3319 5.55783C13.2673 5.28092 13.3694 5.0358 13.5072 4.79394C13.588 4.67119 13.6723 4.55228 13.7593 4.43388C13.8033 4.37225 13.8033 4.37225 13.8482 4.30937C13.9198 4.20934 13.9922 4.1099 14.0648 4.01059C13.8271 3.48883 13.3843 3.11024 12.9476 2.75382C12.6575 2.85458 12.4398 3.00074 12.1927 3.18147C11.6654 3.53299 11.6654 3.53299 11.3551 3.49866C11.061 3.409 10.7881 3.27542 10.5132 3.13892C10.3328 3.05166 10.1618 2.98438 9.97153 2.924C9.68998 2.80408 9.65361 2.74743 9.52642 2.47453C9.47351 2.2596 9.44023 2.04329 9.4086 1.82433C9.39956 1.76596 9.39051 1.70759 9.38119 1.64746C9.35911 1.50433 9.33794 1.36106 9.31696 1.21776C8.70004 1.15844 8.11745 1.1489 7.50162 1.21776Z" fill="var(--fill-0, #282828)"/>
<path id="Vector_2" d="M10.5752 5.33737C11.3579 5.94939 11.9668 6.77237 12.1113 7.7811C12.1836 8.98451 11.9881 9.99891 11.1862 10.9361C10.5498 11.6134 9.69867 12.0704 8.76209 12.1266C7.55484 12.1561 6.59822 11.8558 5.70798 11.0193C4.92284 10.2034 4.67351 9.2076 4.69067 8.10647C4.73233 7.08364 5.24609 6.24059 5.96708 5.54684C7.25695 4.47855 9.19714 4.37024 10.5752 5.33737ZM6.52565 6.66397C5.97998 7.37239 5.82036 8.00948 5.89726 8.89823C6.05287 9.62225 6.43632 10.1617 7.0493 10.5696C7.69818 10.9489 8.37391 11.0407 9.11392 10.875C9.9131 10.6079 10.4098 10.1227 10.7918 9.37634C11.0505 8.72715 11.0058 7.96557 10.7367 7.32917C10.3795 6.6414 9.86333 6.24173 9.15701 5.93521C8.15777 5.78279 7.25348 5.91969 6.52565 6.66397Z" fill="var(--fill-0, #282828)"/>
</g>
</svg>
