<svg width="40" height="24" viewBox="0 0 40 24" fill="none" xmlns="http://www.w3.org/2000/svg">
<path d="M10.0361 12.4582C9.96712 12.2508 9.96712 12.0266 10.0361 11.8192C11.4231 7.64623 15.3601 4.63623 20.0001 4.63623C24.6381 4.63623 28.5731 7.64323 29.9631 11.8142C30.0331 12.0212 30.0331 12.2452 29.9631 12.4532C28.5771 16.6262 24.6401 19.6362 20.0001 19.6362C15.3621 19.6362 11.4261 16.6292 10.0361 12.4582Z" stroke="#667085" stroke-width="1.5" stroke-linecap="round" stroke-linejoin="round"/>
<path d="M23 12.1362C23 12.9319 22.6839 13.6949 22.1213 14.2576C21.5587 14.8202 20.7956 15.1362 20 15.1362C19.2044 15.1362 18.4413 14.8202 17.8787 14.2576C17.3161 13.6949 17 12.9319 17 12.1362C17 11.3406 17.3161 10.5775 17.8787 10.0149C18.4413 9.4523 19.2044 9.13623 20 9.13623C20.7956 9.13623 21.5587 9.4523 22.1213 10.0149C22.6839 10.5775 23 11.3406 23 12.1362Z" stroke="#667085" stroke-width="1.5" stroke-linecap="round" stroke-linejoin="round"/>
</svg>
