<svg preserveAspectRatio="none" width="100%" height="100%" overflow="visible" style="display: block;" viewBox="0 0 40 24" fill="none" xmlns="http://www.w3.org/2000/svg">
<g id="Frame">
<path id="Vector" d="M10.0361 12.4584C9.96712 12.2509 9.96712 12.0268 10.0361 11.8194C11.4231 7.64635 15.3601 4.63635 20.0001 4.63635C24.6381 4.63635 28.5731 7.64335 29.9631 11.8144C30.0331 12.0214 30.0331 12.2454 29.9631 12.4534C28.5771 16.6264 24.6401 19.6364 20.0001 19.6364C15.3621 19.6364 11.4261 16.6294 10.0361 12.4584Z" stroke="var(--stroke-0, #667085)" stroke-width="1.5" stroke-linecap="round" stroke-linejoin="round"/>
<path id="Vector_2" d="M23 12.1364C23 12.932 22.6839 13.6951 22.1213 14.2577C21.5587 14.8203 20.7956 15.1364 20 15.1364C19.2044 15.1364 18.4413 14.8203 17.8787 14.2577C17.3161 13.6951 17 12.932 17 12.1364C17 11.3407 17.3161 10.5776 17.8787 10.015C18.4413 9.45242 19.2044 9.13635 20 9.13635C20.7956 9.13635 21.5587 9.45242 22.1213 10.015C22.6839 10.5776 23 11.3407 23 12.1364Z" stroke="var(--stroke-0, #667085)" stroke-width="1.5" stroke-linecap="round" stroke-linejoin="round"/>
</g>
</svg>
